
<svg width="16" height="16" viewBox="0 0 16 16" fill="none" xmlns="http://www.w3.org/2000/svg">
<path fill-rule="evenodd" clip-rule="evenodd" d="M3 3C2.73478 3 2.48043 3.10536 2.29289 3.29289C2.10536 3.48043 2 3.73478 2 4V13C2 13.2652 2.10536 13.5196 2.29289 13.7071C2.48043 13.8946 2.73478 14 3 14H12C12.2652 14 12.5196 13.8946 12.7071 13.7071C12.8946 13.5196 13 13.2652 13 13V11.5C13 11.3674 13.0527 11.2402 13.1464 11.1464C13.2402 11.0527 13.3674 11 13.5 11C13.6326 11 13.7598 11.0527 13.8536 11.1464C13.9473 11.2402 14 11.3674 14 11.5V13C14 13.5304 13.7893 14.0391 13.4142 14.4142C13.0391 14.7893 12.5304 15 12 15H3C2.46957 15 1.96086 14.7893 1.58579 14.4142C1.21071 14.0391 1 13.5304 1 13V4C1 3.46957 1.21071 2.96086 1.58579 2.58579C1.96086 2.21071 2.46957 2 3 2H6.5C6.63261 2 6.75979 2.05268 6.85355 2.14645C6.94732 2.24021 7 2.36739 7 2.5C7 2.63261 6.94732 2.75979 6.85355 2.85355C6.75979 2.94732 6.63261 3 6.5 3H3Z" fill="white"/>
<path fill-rule="evenodd" clip-rule="evenodd" d="M10.952 10.838L15.449 6.415L15.507 6.35C15.5913 6.23658 15.6318 6.09657 15.6211 5.95568C15.6105 5.81478 15.5494 5.68246 15.449 5.583L10.952 1.162L10.89 1.109C10.8052 1.04798 10.705 1.01183 10.6007 1.0046C10.4965 0.997366 10.3923 1.01934 10.2998 1.06806C10.2074 1.11678 10.1304 1.1903 10.0774 1.28038C10.0244 1.37046 9.99762 1.47353 9.99999 1.578V3.708L9.77599 3.723C6.21499 4.006 4.12799 6.258 3.62799 10.345C3.61553 10.4608 3.63858 10.5776 3.69409 10.68C3.7496 10.7824 3.83495 10.8655 3.93879 10.9182C4.04263 10.971 4.16006 10.9909 4.27548 10.9753C4.3909 10.9597 4.49885 10.9094 4.58499 10.831C5.82194 9.66655 7.34527 8.85055 8.99999 8.466C9.24527 8.4149 9.4929 8.37586 9.74199 8.349L9.99999 8.326V10.421L10.005 10.504C10.0175 10.6077 10.0587 10.7059 10.124 10.7874C10.1894 10.8689 10.2762 10.9305 10.3747 10.9652C10.4732 11 10.5795 11.0065 10.6815 10.984C10.7835 10.9615 10.8772 10.9109 10.952 10.838ZM9.84999 4.72L11 4.643V2.61L14.446 5.998L11 9.39V7.231L9.64399 7.353H9.63599C7.87444 7.56729 6.20513 8.25964 4.80899 9.355C5.01936 8.21906 5.52926 7.1599 6.28599 6.287C7.22601 5.3231 8.50325 4.76137 9.84899 4.72H9.84999Z" fill="#4dc3fe"/>
</svg>
