
<svg width="16" height="16" viewBox="0 0 16 16" fill="none" xmlns="http://www.w3.org/2000/svg">
<g clip-path="url(#clip0_207_224)">
<path fill-rule="evenodd" clip-rule="evenodd" d="M 2.5 2 C 2.4 2 2.2 2.1 2.1 2.1 C 2.1 2.2 2 2.4 2 2.5 V 14.5 C 2 14.6 2.1 14.8 2.1 14.9 C 2.2 14.9 2.4 15 2.5 15 H 5.5 C 5.6 15 5.8 15.1 5.9 15.1 C 5.9 15.2 6 15.4 6 15.5 C 6 15.6 5.9 15.8 5.9 15.9 C 5.8 15.9 5.6 16 5.5 16 H 2.5 C 2.1 16 1.7 15.8 1.4 15.6 C 1.2 15.3 1 14.9 1 14.5 V 2.5 C 1 2.1 1.2 1.7 1.4 1.4 C 1.7 1.2 2.1 1 2.5 1 H 4.5 C 4.6 1 4.8 1.1 4.9 1.1 C 4.9 1.2 5 1.4 5 1.5 C 5 1.6 4.9 1.8 4.9 1.9 C 4.8 1.9 4.6 2 4.5 2 H 2.5 Z M 9 1.5 C 9 1.4 9.1 1.2 9.1 1.1 C 9.2 1.1 9.4 1 9.5 1 H 11.5 C 11.9 1 12.3 1.2 12.6 1.4 C 12.8 1.7 13 2.1 13 2.5 V 3.5 C 13 3.6 12.9 3.8 12.9 3.9 C 12.8 3.9 12.6 4 12.5 4 C 12.4 4 12.2 3.9 12.1 3.9 C 12.1 3.8 12 3.6 12 3.5 V 2.5 C 12 2.4 11.9 2.2 11.9 2.1 C 11.8 2.1 11.6 2 11.5 2 H 9.5 C 9.4 2 9.2 1.9 9.1 1.9 C 9.1 1.8 9 1.6 9 1.5 Z" fill="#f2f2f7"/>
<path fill-rule="evenodd" clip-rule="evenodd" d="M 4 1.5 C 4 1.1 4.2 0.7 4.4 0.4 C 4.7 0.2 5.1 0 5.5 0 L 8.5 0 C 8.9 0 9.3 0.2 9.6 0.4 C 9.8 0.7 10 1.1 10 1.5 C 10 1.9 9.8 2.3 9.6 2.6 C 9.3 2.8 8.9 3 8.5 3 H 5.5 C 5.1 3 4.7 2.8 4.4 2.6 C 4.2 2.3 4 1.9 4 1.5 Z M 5.5 1 C 5.4 1 5.2 1.1 5.1 1.1 C 5.1 1.2 5 1.4 5 1.5 C 5 1.6 5.1 1.8 5.1 1.9 C 5.2 1.9 5.4 2 5.5 2 H 8.5 C 8.6 2 8.8 1.9 8.9 1.9 C 8.9 1.8 9 1.6 9 1.5 C 9 1.4 8.9 1.2 8.9 1.1 C 8.8 1.1 8.6 1 8.5 1 H 5.5 Z" fill="#f2f2f7"/>
<path fill-rule="evenodd" clip-rule="evenodd" d="M 7 6.5 C 7 6.1 7.2 5.7 7.4 5.4 C 7.7 5.2 8.1 5 8.5 5 H 13.5 C 13.9 5 14.3 5.2 14.6 5.4 C 14.8 5.7 15 6.1 15 6.5 V 14.5 C 15 14.9 14.8 15.3 14.6 15.6 C 14.3 15.8 13.9 16 13.5 16 H 8.5 C 8.1 16 7.7 15.8 7.4 15.6 C 7.2 15.3 7 14.9 7 14.5 V 6.5 Z M 8.5 6 C 8.4 6 8.2 6.1 8.1 6.1 C 8.1 6.2 8 6.4 8 6.5 V 14.5 C 8 14.6 8.1 14.8 8.1 14.9 C 8.2 14.9 8.4 15 8.5 15 H 13.5 C 13.6 15 13.8 14.9 13.9 14.9 C 13.9 14.8 14 14.6 14 14.5 V 6.5 C 14 6.4 13.9 6.2 13.9 6.1 C 13.8 6.1 13.6 6 13.5 6 H 8.5 Z" fill="#4dc3fe"/>
</g>
<defs>
<clipPath id="clip0_207_224">
<rect width="16" height="16" fill="white"/>
</clipPath>
</defs>
</svg>
