
<svg width="16" height="16" viewBox="0 0 16 16" fill="none" xmlns="http://www.w3.org/2000/svg">
<g clip-path="url(#clip0_207_231)">
<path d="M9 2.5H3C2.6717 2.5 2.34661 2.56466 2.04329 2.6903C1.73998 2.81594 1.46438 3.00009 1.23223 3.23223C0.763392 3.70107 0.5 4.33696 0.5 5V11C0.5 11.663 0.763392 12.2989 1.23223 12.7678C1.46438 12.9999 1.73998 13.1841 2.04329 13.3097C2.34661 13.4353 2.6717 13.5 3 13.5H9M12 2.5H13C13.663 2.5 14.2989 2.76339 14.7678 3.23223C15.2366 3.70107 15.5 4.33696 15.5 5V11C15.5 11.663 15.2366 12.2989 14.7678 12.7678C14.2989 13.2366 13.663 13.5 13 13.5H12" stroke="white"/>
<path d="M8.5 0.5H10.5M10.5 0.5H12.5M10.5 0.5V15.5M8.5 15.5H10.5M10.5 15.5H12.5" stroke="#005FB8" stroke-linecap="round"/>
<path fill-rule="evenodd" clip-rule="evenodd" d="M5.49998 4C5.59584 3.99994 5.68968 4.02743 5.77035 4.0792C5.85102 4.13097 5.91511 4.20484 5.95498 4.292L8.70498 10.292C8.7323 10.3518 8.74758 10.4163 8.74995 10.482C8.75232 10.5476 8.74173 10.6131 8.7188 10.6747C8.69586 10.7362 8.66102 10.7927 8.61627 10.8408C8.57152 10.8889 8.51774 10.9277 8.45798 10.955C8.39823 10.9823 8.33369 10.9976 8.26803 11C8.20237 11.0023 8.13689 10.9917 8.07533 10.9688C8.01376 10.9459 7.95732 10.911 7.90922 10.8663C7.86112 10.8215 7.8223 10.7678 7.79498 10.708L7.12698 9.25H3.87298L3.20498 10.708C3.17767 10.7678 3.13885 10.8215 3.09075 10.8663C3.04265 10.911 2.9862 10.9459 2.92464 10.9688C2.86307 10.9917 2.79759 11.0023 2.73194 11C2.66628 10.9976 2.60174 10.9823 2.54198 10.955C2.48223 10.9277 2.42845 10.8889 2.3837 10.8408C2.33895 10.7927 2.30411 10.7362 2.28117 10.6747C2.25824 10.6131 2.24765 10.5476 2.25002 10.482C2.25239 10.4163 2.26767 10.3518 2.29498 10.292L5.04498 4.292C5.08496 4.20491 5.14907 4.13111 5.22972 4.07936C5.31036 4.0276 5.40416 4.00006 5.49998 4ZM5.49998 5.7L4.33098 8.25H6.66998L5.49998 5.7Z" fill="#4dc3fe"/>
</g>
<defs>
<clipPath id="clip0_207_231">
<rect width="16" height="16" fill="white"/>
</clipPath>
</defs>
</svg>
