
<svg width="16" height="16" viewBox="0 0 16 16" fill="none" xmlns="http://www.w3.org/2000/svg">
<g clip-path="url(#clip0_207_213)">
<path fill-rule="evenodd" clip-rule="evenodd" d="M3.22801 0.0800004C3.33929 0.00807609 3.47457 -0.0167361 3.60413 0.011014C3.73369 0.0387642 3.84695 0.116807 3.91901 0.228L10.74 10.72C10.7759 10.775 10.8005 10.8366 10.8126 10.9011C10.8246 10.9657 10.8239 11.032 10.8103 11.0962C10.7968 11.1605 10.7707 11.2215 10.7336 11.2756C10.6965 11.3298 10.649 11.3761 10.594 11.412C10.539 11.4479 10.4774 11.4725 10.4129 11.4846C10.3483 11.4966 10.282 11.4959 10.2178 11.4823C10.1535 11.4688 10.0926 11.4427 10.0384 11.4056C9.98419 11.3684 9.93786 11.321 9.90201 11.266L3.08001 0.772C3.00799 0.66084 2.98302 0.525646 3.01058 0.396095C3.03814 0.266543 3.11598 0.15322 3.22701 0.0810004L3.22801 0.0800004Z" fill="#F2F2F7"/>
<path fill-rule="evenodd" clip-rule="evenodd" d="M7.85401 6.743L5.25901 10.743C5.18876 10.8542 5.16518 10.9887 5.1934 11.1172C5.22161 11.2457 5.29935 11.3579 5.40974 11.4295C5.52014 11.5011 5.6543 11.5263 5.78314 11.4996C5.91198 11.4729 6.02512 11.3965 6.09801 11.287L8.45001 7.661L7.85401 6.743ZM9.19401 6.513L12.92 0.772999C12.9579 0.718006 12.9844 0.655973 12.998 0.590562C13.0115 0.525151 13.0118 0.457689 12.9989 0.39216C12.9859 0.32663 12.96 0.264362 12.9225 0.209032C12.8851 0.153702 12.837 0.106432 12.781 0.070013C12.725 0.0335944 12.6623 0.00876562 12.5965 -0.00300714C12.5308 -0.0147799 12.4633 -0.013258 12.3981 0.00146885C12.333 0.0161957 12.2715 0.0438287 12.2172 0.0827362C12.1629 0.121644 12.1169 0.171037 12.082 0.227999L8.59801 5.595L9.19501 6.513H9.19401Z" fill="#F2F2F7"/>
<path fill-rule="evenodd" clip-rule="evenodd" d="M4 11C3.46957 11 2.96086 11.2107 2.58579 11.5858C2.21071 11.9609 2 12.4696 2 13C2 13.5304 2.21071 14.0391 2.58579 14.4142C2.96086 14.7893 3.46957 15 4 15C4.53043 15 5.03914 14.7893 5.41421 14.4142C5.78929 14.0391 6 13.5304 6 13C6 12.4696 5.78929 11.9609 5.41421 11.5858C5.03914 11.2107 4.53043 11 4 11ZM1 13C1 12.606 1.0776 12.2159 1.22836 11.8519C1.37913 11.488 1.6001 11.1573 1.87868 10.8787C2.15726 10.6001 2.48797 10.3791 2.85195 10.2284C3.21593 10.0776 3.60603 10 4 10C4.39397 10 4.78407 10.0776 5.14805 10.2284C5.51203 10.3791 5.84274 10.6001 6.12132 10.8787C6.3999 11.1573 6.62087 11.488 6.77164 11.8519C6.9224 12.2159 7 12.606 7 13C7 13.7956 6.68393 14.5587 6.12132 15.1213C5.55871 15.6839 4.79565 16 4 16C3.20435 16 2.44129 15.6839 1.87868 15.1213C1.31607 14.5587 1 13.7956 1 13ZM12 11C11.4696 11 10.9609 11.2107 10.5858 11.5858C10.2107 11.9609 10 12.4696 10 13C10 13.5304 10.2107 14.0391 10.5858 14.4142C10.9609 14.7893 11.4696 15 12 15C12.5304 15 13.0391 14.7893 13.4142 14.4142C13.7893 14.0391 14 13.5304 14 13C14 12.4696 13.7893 11.9609 13.4142 11.5858C13.0391 11.2107 12.5304 11 12 11ZM9 13C9 12.2044 9.31607 11.4413 9.87868 10.8787C10.4413 10.3161 11.2044 10 12 10C12.7956 10 13.5587 10.3161 14.1213 10.8787C14.6839 11.4413 15 12.2044 15 13C15 13.7956 14.6839 14.5587 14.1213 15.1213C13.5587 15.6839 12.7956 16 12 16C11.2044 16 10.4413 15.6839 9.87868 15.1213C9.31607 14.5587 9 13.7956 9 13Z" fill="#4dc3fe"/>
</g>
<defs>
<clipPath id="clip0_207_213">
<rect width="16" height="16" fill="white"/>
</clipPath>
</defs>
</svg>
