
<svg width="16" height="16" viewBox="0 0 16 16" fill="none" xmlns="http://www.w3.org/2000/svg">
<g clip-path="url(#clip0_207_251)">
<path fill-rule="evenodd" clip-rule="evenodd" d="M 11.5 2 C 11.6 2 11.8 2.1 11.9 2.1 C 11.9 2.2 12 2.4 12 2.5 V 13.5 C 12 13.6 11.9 13.8 11.9 13.9 C 11.8 13.9 11.6 14 11.5 14 C 11.4 14 11.2 13.9 11.1 13.9 C 11.1 13.8 11 13.6 11 13.5 V 2.5 C 11 2.4 11.1 2.2 11.1 2.1 C 11.2 2.1 11.4 2 11.5 2 Z" fill="#005fb8"/>
<path fill-rule="evenodd" clip-rule="evenodd" d="M 7.1 9.1 C 7.2 9.1 7.2 9.1 7.3 9 C 7.4 9 7.4 9 7.5 9 C 7.6 9 7.6 9 7.7 9 C 7.8 9.1 7.8 9.1 7.9 9.1 L 11.5 12.8 L 15.1 9.1 C 15.2 9.1 15.4 9 15.5 9 C 15.6 9 15.8 9.1 15.9 9.1 C 15.9 9.2 16 9.4 16 9.5 C 16 9.6 15.9 9.8 15.9 9.9 L 11.9 13.9 C 11.8 13.9 11.8 13.9 11.7 14 C 11.6 14 11.6 14 11.5 14 C 11.4 14 11.4 14 11.3 14 C 11.2 13.9 11.2 13.9 11.1 13.9 L 7.1 9.9 C 7.1 9.8 7.1 9.8 7 9.7 C 7 9.6 7 9.6 7 9.5 C 7 9.4 7 9.4 7 9.3 C 7.1 9.2 7.1 9.2 7.1 9.1 Z" fill="#4dc3fe"/>
<path fill-rule="evenodd" clip-rule="evenodd" d="M 4.5 2 C 4.6 2 4.8 2.1 4.9 2.1 C 4.9 2.2 5 2.4 5 2.5 V 13.5 C 5 13.6 4.9 13.8 4.9 13.9 C 4.8 13.9 4.6 14 4.5 14 C 4.4 14 4.2 13.9 4.1 13.9 C 4.1 13.8 4 13.6 4 13.5 V 2.5 C 4 2.4 4.1 2.2 4.1 2.1 C 4.2 2.1 4.4 2 4.5 2 Z" fill="white"/>
<path fill-rule="evenodd" clip-rule="evenodd" d="M 4.1 2.1 C 4.2 2.1 4.2 2.1 4.3 2 C 4.4 2 4.4 2 4.5 2 C 4.6 2 4.6 2 4.7 2 C 4.8 2.1 4.8 2.1 4.9 2.1 L 8.9 6.1 C 8.9 6.2 8.9 6.2 9 6.3 C 9 6.4 9 6.4 9 6.5 C 9 6.6 9 6.6 9 6.7 C 8.9 6.8 8.9 6.8 8.9 6.9 C 8.8 6.9 8.8 6.9 8.7 7 C 8.6 7 8.6 7 8.5 7 C 8.4 7 8.4 7 8.3 7 C 8.2 6.9 8.2 6.9 8.1 6.9 L 4.5 3.2 L 0.9 6.9 C 0.8 6.9 0.8 6.9 0.7 7 C 0.6 7 0.6 7 0.5 7 C 0.4 7 0.4 7 0.3 7 C 0.2 6.9 0.2 6.9 0.1 6.9 C 0.1 6.8 0.1 6.8 0 6.7 C 0 6.6 0 6.6 0 6.5 C 0 6.4 0 6.4 0 6.3 C 0.1 6.2 0.1 6.2 0.1 6.1 L 4.1 2.1 Z" fill="white"/>
</g>
<defs>
<clipPath id="clip0_207_251">
<rect width="16" height="16" fill="white"/>
</clipPath>
</defs>
</svg>
